<svg width="20" height="15" viewBox="0 0 20 15" fill="none"
     xmlns="http://www.w3.org/2000/svg">
  <path
    d="M17.4759 0.0730839C17.335 0.113432 17.1315 0.198163 17.0258 0.258685C16.9006 0.331312 15.2804 1.97348 12.1536 5.19731L7.46538 10.023L5.38345 7.88047C4.23682 6.7023 3.21151 5.67745 3.10976 5.60886C2.47187 5.16503 1.56005 5.16099 0.906514 5.59676C0.225582 6.05269 -0.126624 6.91614 0.0416524 7.73118C0.174708 8.36868 0.0259986 8.19115 3.2663 11.54C5.25822 13.5978 6.28744 14.6307 6.42832 14.7195C6.85097 14.9818 7.46146 15.0705 7.95064 14.9414C8.52199 14.7881 8.21284 15.0907 14.1416 8.97794C17.648 5.36274 19.6634 3.25656 19.73 3.13955C19.9335 2.76834 20 2.51012 20 2.05418C20 1.42878 19.8356 1.00916 19.4286 0.58954C18.9316 0.0771189 18.1764 -0.120588 17.4759 0.0730839Z"
    fill="black"/>
</svg>
