<svg width="17" height="20" viewBox="0 0 17 20" fill="none"
     xmlns="http://www.w3.org/2000/svg">
  <path
    d="M8.0672 0.668897C8.02978 0.701856 8.01731 0.980176 8.01731 1.68696V2.66475L7.46849 2.70503C5.12769 2.8918 3.03636 3.89888 1.64768 5.51387C0.238216 7.15083 -0.302287 9.24189 0.163377 11.2597C0.446102 12.5012 1.41901 14.1381 2.0884 14.5007C2.42518 14.6875 2.9241 14.6765 3.25672 14.475C3.80138 14.1418 3.92196 13.5559 3.53529 13.0651C2.94489 12.3071 2.71622 11.9262 2.51665 11.3732C2.3046 10.78 2.25887 10.5017 2.26303 9.81685C2.26303 9.2895 2.28381 9.1064 2.35865 8.79145C2.88668 6.66743 4.74518 5.0854 7.13587 4.72285C7.39781 4.68623 7.70132 4.65327 7.81358 4.65327H8.01731V5.64204C8.01731 6.54292 8.02147 6.63081 8.09215 6.66011C8.12957 6.67842 8.19193 6.68574 8.22935 6.67109C8.26261 6.66011 9.31036 5.9936 10.5494 5.18794C12.4203 3.97578 12.8028 3.71577 12.7904 3.64985C12.7821 3.59492 12.254 3.23604 11.0109 2.43037C8.45387 0.771436 8.22104 0.624951 8.16699 0.624951C8.13788 0.624951 8.0963 0.643262 8.0672 0.668897Z"
    fill="black"/>
  <path
    d="M13.6511 5.38206C13.1356 5.49925 12.7988 5.87645 12.7905 6.33788C12.7863 6.61253 12.8362 6.72606 13.1314 7.08861C13.9879 8.14696 14.3288 9.11742 14.2831 10.3296C14.2498 11.1096 14.1334 11.571 13.7842 12.2888C12.9693 13.966 10.9819 15.2038 8.90302 15.332L8.51635 15.3577V14.3652C8.51635 13.4277 8.51219 13.3691 8.43735 13.3362C8.33757 13.2886 8.50387 13.186 5.88451 14.8816C4.15074 16.0058 3.73497 16.2915 3.74329 16.3501C3.7516 16.4014 4.4792 16.8921 5.98014 17.8662C7.20251 18.6609 8.2461 19.3274 8.29599 19.3457C8.36667 19.375 8.40409 19.375 8.45398 19.3384C8.50803 19.2981 8.51635 19.1479 8.51635 18.313V17.3352L8.90302 17.3096C9.84682 17.2473 10.591 17.1008 11.4309 16.8078C13.7717 15.9985 15.6094 14.1785 16.2539 12.0398C16.6613 10.6702 16.6239 9.27122 16.1416 7.95287C15.8672 7.20579 15.1812 6.12913 14.6864 5.66771C14.4411 5.43333 13.9754 5.30882 13.6511 5.38206Z"
    fill="black"/>
</svg>
